<?xml version="1.0" encoding="UTF-8"?>
<svg id="Layer_2" data-name="Layer 2" xmlns="http://www.w3.org/2000/svg" viewBox="0 0 136.01 73.01">
  <g id="Layer_1-2" data-name="Layer 1">
    <path d="M134.07,44.71c-2.34,3.57-4.03,7.91-7.17,10.52-4.28,3.57-9.66,5.84-14.57,8.66.72-1.43,1.44-2.87,2.4-4.78-1.16.27-1.9.47-2.65.61-10.56,2.03-21.04,4.8-31.7,5.92-18.01,1.89-35.32-2.9-52.36-7.99-8.01-2.39-14.98-7.23-20.14-14.08-4.13-5.49-5.32-11.38-1.38-17.59,4.12-4.74,9.72-2.63,14.75-3.18,9.02.84,17.65,5.06,27.07,3.12-3.08-1.84-6.49-2.6-9.53-4.11-5.41-2.69-10.6-5.83-15.88-8.78.48-5.58,4.55-6.07,8.85-6.25,1.23-.15,2.45-.3,3.68-.45.53-.07,1.06-.14,1.6-.21,1.96.19,3.93.64,5.88.53,9.51-.53,18.92.17,28.27,1.87,16.22,2.95,32.06,6.98,46.02,16.31,1.37,1.68,2.73,3.36,4.1,5.04.9,1.17,1.79,2.34,2.69,3.51.08,3.51.15,7.03.23,10.54l-6.7,12.01c.33.37.66.74.99,1.12l7.66-5.19c.17-.3.22-.61.16-.95,0,0,.05.13.05.13,2.56-2.11,5.13-4.22,7.69-6.33ZM44.18,44.36c.03.66.07,1.32.1,1.98,5-.78,10-1.56,15.01-2.34-.07-.46-.13-.93-.2-1.39-4.97.58-9.94,1.17-14.91,1.75Z" style="fill: #8fc586; stroke-width: 0px;"/>
    <path d="M6.51,25.97c-3.95,6.21-2.75,12.1,1.38,17.59,5.15,6.85,12.12,11.69,20.14,14.08,17.03,5.09,34.34,9.88,52.36,7.99,10.66-1.12,21.14-3.89,31.7-5.92.75-.14,1.49-.34,2.65-.61-.96,1.91-1.68,3.35-2.4,4.78-4.75,1.85-9.51,3.7-14.26,5.56-.96.18-1.91.37-2.87.55-7.66.98-15.33,1.96-22.99,2.94-1.67.02-3.34.05-5.01.07-7.68-1.1-15.36-2.2-23.04-3.3-2.2-.99-4.32-2.29-6.62-2.91-11.08-3-21.25-7.53-29.11-16.25-1.99-2.21-3.96-4.44-5.93-6.66-4.24-6.01-2.98-14.37,2.99-19.85.34.65.68,1.29,1.03,1.94Z" style="fill: #416f56; stroke-width: 0px;"/>
    <path d="M37.05,6.11c-.53.07-1.06.14-1.6.2-.94-.23-1.88-.46-2.82-.68C58.16-2.64,83.51-1.67,108.51,7.67c9.79,3.66,19.19,8.5,24.63,18.04,1.84,3.22,1.96,7.41,2.87,11.15-2.97-7.88-7.5-14.55-14.72-19.15-1.38-.65-2.76-1.31-4.14-1.96-.18-.11-.37-.14-.58-.09-1.8-1.4-3.43-3.14-5.42-4.15-11.17-5.67-23.42-8.07-35.6-8.34-12.8-.29-25.66,1.86-38.49,2.95Z" style="fill: #f0f7ef; stroke-width: 0px;"/>
    <path d="M116.56,15.65c.2-.05.4-.02.58.09.78,1.62,1.56,3.25,2.97,6.19.69-2.49.93-3.36,1.17-4.23,7.22,4.61,11.76,11.28,14.72,19.15-.65,2.62-1.29,5.24-1.94,7.86-2.56,2.11-5.13,4.22-7.69,6.33-.72-2.37-1.43-4.75-2.15-7.12-.08-3.51-.15-7.03-.23-10.54-.9-1.17-1.79-2.34-2.69-3.51-1.37-1.68-2.73-3.36-4.1-5.03-.22-3.06-.43-6.12-.65-9.17ZM121.76,24.83c.2.17.4.34.6.51.09-.12.27-.33.25-.35-.17-.19-.38-.35-.58-.52-.09.12-.18.24-.27.37Z" style="fill: #eef1b7; stroke-width: 0px;"/>
    <path d="M22.92,13.02c5.28,2.95,10.47,6.09,15.88,8.78,3.04,1.51,6.45,2.27,9.53,4.11-9.42,1.93-18.06-2.28-27.07-3.12.64-.55,1.27-1.11,1.91-1.66.75.08,1.49.15,2.24.23.43-.03.87-.06,1.3-.08-.27-.5-.54-1.01-.81-1.51-1.25-2.16-2.5-4.32-3.73-6.48-.03-.05.17-.28.29-.33.13-.04.3.04.45.07Z" style="fill: #54825f; stroke-width: 0px;"/>
    <path d="M2.5,43.88c1.98,2.22,3.94,4.45,5.93,6.66,7.86,8.72,18.04,13.25,29.11,16.25,2.3.62,4.42,1.92,6.62,2.91-.31.1-.63.19-.95.27-.67.01-1.34.02-2.01.04-11.94-3.57-23.83-7.38-32.77-16.67-2.53-2.63-3.99-6.28-5.94-9.46Z" style="fill: #135d54; stroke-width: 0px;"/>
    <path d="M23.16,21.13c-.64.55-1.27,1.11-1.91,1.66-5.03.55-10.63-1.56-14.75,3.18-.34-.65-.68-1.29-1.02-1.94,5.41-3.89,11.54-3.42,17.68-2.9Z" style="fill: #569a75; stroke-width: 0px;"/>
    <path d="M25.9,19.76c.27.5.54,1.01.81,1.51-.44.03-.87.06-1.3.08.17-.53.33-1.06.5-1.59Z" style="fill: #569a75; stroke-width: 0px;"/>
    <path d="M32.63,5.63c.94.23,1.88.45,2.82.68-1.22.15-2.45.3-3.68.45.28-.38.57-.76.86-1.14Z" style="fill: #e5edb3; stroke-width: 0px;"/>
    <path d="M116.56,15.65c.22,3.06.43,6.12.65,9.17-13.96-9.34-29.8-13.36-46.02-16.31-9.35-1.7-18.76-2.4-28.27-1.87-1.94.11-3.92-.34-5.88-.53,12.83-1.08,25.69-3.23,38.49-2.94,12.19.27,24.44,2.67,35.6,8.34,2,1.01,3.62,2.75,5.42,4.15Z" style="fill: #e5edb3; stroke-width: 0px;"/>
    <path d="M124.23,43.92c.72,2.37,1.43,4.75,2.15,7.12,0,0-.04-.13-.05-.13-.11.08-.32.17-.31.24,0,.24.1.47.16.7l-7.66,5.19c-.33-.37-.66-.74-.99-1.12l6.7-12.01Z" style="fill: #e5edb3; stroke-width: 0px;"/>
    <path d="M44.18,44.36c4.97-.58,9.94-1.17,14.91-1.75.07.46.13.93.2,1.39-5,.78-10,1.56-15.01,2.34-.03-.66-.07-1.32-.1-1.98Z" style="fill: #416f56; stroke-width: 0px;"/>
    <path d="M121.31,29.86c.9,1.17,1.79,2.34,2.69,3.51-.9-1.17-1.79-2.34-2.69-3.51Z" style="fill: #e5edb3; stroke-width: 0px;"/>
    <path d="M126.18,51.86c-.06-.23-.15-.47-.16-.7,0-.08.2-.16.31-.24.07.34.01.65-.16.95Z" style="fill: #eef1b7; stroke-width: 0px;"/>
    <path d="M121.28,17.7c-.24.87-.48,1.74-1.17,4.23-1.41-2.95-2.19-4.57-2.97-6.19,1.38.65,2.76,1.31,4.14,1.96Z" style="fill: #e5edb3; stroke-width: 0px;"/>
    <path d="M121.76,24.83c.09-.12.18-.24.27-.36.2.17.41.33.58.52.02.02-.16.23-.25.35-.2-.17-.4-.34-.6-.51Z" style="fill: #e5edb3; stroke-width: 0px;"/>
  </g>
</svg>