<?xml version="1.0" encoding="UTF-8"?>
<svg id="Layer_2" data-name="Layer 2" xmlns="http://www.w3.org/2000/svg" viewBox="0 0 138.43 74.31">
  <g id="Layer_1-2" data-name="Layer 1">
    <path d="M105.2,4.73c4.17,1.28,8.34,2.56,12.5,3.84,1.07,1.12,2.15,2.24,3.22,3.37,4.45,8.15,4.71,15.97.81,20.01-5.11-2.25-10.16-4.48-15.21-6.7-.15.34-.3.67-.45,1.01,4.82,2.63,9.64,5.26,14.69,8.01-4.62,6.89-10.25,10.09-17.53,10.44-2.13-3.09-3.22-.94-4.38.87-1.25-1.06-2.5-2.13-3.75-3.19-.51-3.88-1.01-7.77-1.38-10.54-1.81,3.72-3.88,7.99-5.94,12.26-4.81-2.76-6.04,2.16-8.69,4.04-5.34,1.33-10.68,2.66-16.02,4-.37.2-.75.41-1.12.61-.88,0-1.76-.01-2.64-.02-5.72-.8-11.45-1.59-17.17-2.39-.12-.49-.25-.98-.37-1.47,3.46-2.31,6.92-4.61,10.38-6.92.95-.51,1.91-1.01,2.86-1.52l-.02-1.58c-3.92-.21-7.89-.9-11.76-.52-9.69.94-19.34,2.36-29,3.59-.65-1.71-1.27-3.43-1.94-5.12-3.4-8.52-2.4-14.32,5-19.69,4.88-3.54,10.64-6.12,16.36-8.15,6.99-2.49,14.35-3.95,21.55-5.86,7.42-.41,14.84-1.26,22.25-1.12,7.9.15,15.79,1.23,23.69,1.9,0,0-.01,0-.01,0,1.36.29,2.72.58,4.08.87ZM71.15,19.82l.21.27-.24-.23c-8.12-5.41-25.01-6.99-28.16-3.53,8.98,1.11,18.59,2.31,28.19,3.5ZM78.07,26.27c-.26-.41-.52-.81-.79-1.22-5.83,3.15-11.67,6.3-17.5,9.45l.9,1.63c5.8-3.29,11.6-6.58,17.39-9.86Z" style="fill: #8fc586; stroke-width: 0px;"/>
    <path d="M120.93,11.93c-1.08-1.12-2.15-2.25-3.22-3.37,4.93,2.7,10.3,4.83,14.7,8.21,7.8,5.98,8.09,14.58.52,20.82-4.65,3.83-10.47,6.27-15.85,9.17-2,1.08-4.27,1.66-7.48,2.88,2.26,1.26,4.04,1.8,5.15,2.97,2.39,2.52,5.66,5.1,6.33,8.15.93,4.23-3.05,6.8-6.64,8.28-3.96,1.64-8.2,2.59-12.31,3.84-.98-.33-1.97-.66-2.96-.99,1.06-1.35,2.11-2.69,3.17-4.04,3.47-1.65,5.05-4.39,4.73-8.22.25-2.41,5.86-5.66-1.09-6.94.3-1.59.59-3.19.89-4.78,9.95-1.85,19.27-5.03,26.37-12.74,4.46-4.84,5.16-10.3.69-14.62-3.68-3.56-8.62-5.8-13.01-8.63Z" style="fill: #135d54; stroke-width: 0px;"/>
    <path d="M107.07,59.65c.32,3.83-1.26,6.57-4.73,8.22-2.33-1.46-4.52-3.5-7.04-4.09-1.05-.24-2.82,2.62-3.31,3.11-1.65-1.36-3.45-3.9-5.75-4.51-4.25-1.11-11.59,3.64-13.61,8.14,8.79,2.59,17.63,2.6,26.55,1.39.99.33,1.97.66,2.96.99-8.6,2.45-24.78,1.66-33.74-1.98,2.13-2.34,4.03-4.45,6.5-7.16-4.1,1-7.5,2.16-10.99,2.57-2,.23-5.35-.16-5.95-1.35-1.09-2.17-.6-5.14-.75-7.77-.07-1.17,3.62-2.37-.03-3.51.72-.32,1.43-.65,2.15-.97.88,0,1.76.01,2.64.02.37-.2.75-.41,1.12-.61,5.34-1.33,10.68-2.66,16.02-4-.03.5-.05.99-.08,1.49-1.47.27-3,.36-4.39.85-4.52,1.59-9.13,3.02-13.42,5.1-2.96,1.44-4.03,4.4-2.65,7.68,1.4,3.33,4.15,2.02,6.45,1.5,2.25-.5,4.49-1.25,6.6-2.18,1.87-.83,3.57-2.05,5.35-3.1-2.07-.58-4.15-1.15-6.21-1.76-.23-.07-.37-.41-.38-.42,2.36-1.42,4.71-2.85,7.07-4.28.9,3.67.19,8.69,6.55,7.75,1.15-.06,2.3-.11,3.45-.17,4.38,2.03,8.57,1.91,12.52-1.07.69.18,1.38.36,2.07.54,1.69-.14,3.37-.28,5.06-.42Z" style="fill: #1c7c6a; stroke-width: 0px;"/>
    <path d="M101.13,3.87c-7.9-.67-15.78-1.75-23.69-1.9-7.41-.14-14.83.71-22.24,1.12-2.31-.03-4.74-.53-6.93,0-10.95,2.61-21.84,5.48-32.75,8.27-.14-.18-.27-.35-.41-.53,8.62-6.17,19.01-6.95,28.86-8.68C53.73.43,63.82-.23,73.72.07c9.17.28,18.27,2.45,27.41,3.79Z" style="fill: #44babd; stroke-width: 0px;"/>
    <path d="M14.24,41.91c9.66-1.23,19.31-2.65,29-3.59,3.87-.37,7.83.32,11.76.52l.02,1.58c-.95.51-1.91,1.01-2.86,1.52-2.7-3.67-6.36-1.86-9.72-1.69-9.61,1.14-19.23,2.28-28.84,3.43-.01-.45-.03-.91-.04-1.37.23-.12.46-.25.69-.4Z" style="fill: #1c7c6a; stroke-width: 0px;"/>
    <path d="M42.44,40.25c3.37-.17,7.02-1.97,9.72,1.69-3.46,2.31-6.92,4.61-10.38,6.92.12.49.25.98.37,1.47,5.72.8,11.45,1.59,17.17,2.39-.71.32-1.43.65-2.15.97-4.43-.38-8.88-.59-13.28-1.22-1.42-.2-2.69-1.5-4.03-2.3.88-1.3,1.55-2.84,2.7-3.84,1.95-1.69,4.19-3.03,7.57-5.4-3.46-.31-5.58-.5-7.7-.69Z" style="fill: #0d8d71; stroke-width: 0px;"/>
    <path d="M1.2,30.81c-1.93-4.11-1.69-7.85,1.9-11.01.21.19.41.39.62.58-.74,3.4-1.48,6.81-2.22,10.22l-.29.21Z" style="fill: #44babd; stroke-width: 0px;"/>
    <path d="M3.09,19.8c2.33-2.01,4.66-4.02,6.99-6.03.18.2.36.39.54.58-2.3,2.01-4.6,4.02-6.9,6.02-.21-.19-.42-.39-.62-.58Z" style="fill: #44babd; stroke-width: 0px;"/>
    <path d="M13.56,42.31c.01.45.03.91.04,1.36-2.51-1.93-5.02-3.86-7.53-5.79,0,0,.2-.19.2-.19,2.43,1.54,4.86,3.08,7.29,4.62Z" style="fill: #44babd; stroke-width: 0px;"/>
    <path d="M10.08,13.77c1.68-.98,3.36-1.97,5.03-2.95.14.18.28.35.41.53-1.64,1-3.27,2-4.91,3.01-.18-.19-.36-.39-.54-.58Z" style="fill: #44babd; stroke-width: 0px;"/>
    <path d="M105.2,4.73c-1.36-.29-2.72-.58-4.08-.87,1.36.29,2.72.58,4.08.87Z" style="fill: #44babd; stroke-width: 0px;"/>
    <path d="M2.15,32.85c-.32-.68-.63-1.36-.95-2.04,0,0,.29-.21.29-.21.24.73.48,1.47.72,2.2,0,0-.06.05-.06.05Z" style="fill: #44babd; stroke-width: 0px;"/>
    <path d="M3.2,34.8c-.35-.65-.7-1.31-1.05-1.96,0,0,.06-.05.06-.05.36.64.73,1.28,1.09,1.92l-.1.09Z" style="fill: #44babd; stroke-width: 0px;"/>
    <path d="M6.07,37.89c-.33-.34-.65-.68-.98-1.02,0,0,.17-.15.17-.15.34.33.67.65,1.01.98,0,0-.2.19-.2.19Z" style="fill: #44babd; stroke-width: 0px;"/>
    <path d="M5.09,36.87c-.32-.35-.64-.69-.95-1.04,0,0,.12-.1.12-.1l1.01.99s-.17.15-.17.15Z" style="fill: #44babd; stroke-width: 0px;"/>
    <path d="M4.14,35.83c-.31-.34-.63-.68-.94-1.02,0,0,.1-.1.1-.09.32.34.64.68.96,1.02,0,0-.12.1-.12.1Z" style="fill: #44babd; stroke-width: 0px;"/>
    <path d="M120.93,11.93c4.38,2.83,9.33,5.08,13.01,8.63,4.47,4.32,3.76,9.78-.69,14.62-7.11,7.71-16.42,10.89-26.37,12.74-1.22-.72-2.43-1.44-3.65-2.16,0-.36,0-.71,0-1.07,7.28-.35,12.92-3.55,17.53-10.44-5.05-2.75-9.87-5.38-14.69-8.01.15-.34.3-.67.45-1.01,5.05,2.23,10.11,4.45,15.21,6.7,3.9-4.04,3.64-11.86-.81-20.01Z" style="fill: #416f56; stroke-width: 0px;"/>
    <path d="M4.25,35.73c-.32-.34-.64-.68-.96-1.02-.36-.64-.73-1.28-1.09-1.92-.24-.73-.48-1.46-.72-2.2.74-3.41,1.48-6.81,2.23-10.22,2.3-2.01,4.6-4.02,6.9-6.02,1.64-1,3.27-2,4.91-3.01,10.91-2.78,21.8-5.66,32.75-8.27,2.19-.52,4.62-.02,6.93,0-7.21,1.91-14.57,3.37-21.56,5.86-5.72,2.03-11.48,4.62-16.36,8.15-7.4,5.36-8.39,11.17-5,19.69.68,1.7,1.3,3.41,1.94,5.12-.22.15-.45.28-.69.4-2.43-1.54-4.86-3.08-7.29-4.62-.34-.33-.67-.65-1.01-.98-.34-.33-.67-.66-1.01-.99Z" style="fill: #e1f0e3; stroke-width: 0px;"/>
    <path d="M79.01,49.62c.03-.5.05-1,.08-1.49,2.65-1.88,3.89-6.8,8.69-4.04,1.03-.25,2.05-.52,3.08-.75,1.41-.33,2.83-.64,4.24-.96,1.25,1.06,2.5,2.13,3.75,3.19.26.38.51.76.76,1.14,0,0,.05.11.05.11-.52.35-1.04.69-1.56,1.04l.04-.05c-.99.66-1.99,1.32-2.98,1.98,0,0,.02.04.02.04-.33-.34-.66-.68-.99-1.01,0,0-.01-.03-.01-.03-.78-.44-1.51-1.13-2.34-1.27-1.39-.23-2.84-.11-4.27-.13-.4-.27-.79-.54-1.19-.8-.23-.08-.46-.17-.68-.25.11.21.21.41.32.62.28.39.56.78.84,1.17.42,1.25.83,2.5,1.25,3.75l.04-.04c-2.47.19-4.93.38-6.62.51,1.03,3.57,1.74,6.01,2.44,8.44-6.36.95-5.65-4.08-6.55-7.74,0,0-.13.04-.13.04.58-.67,1.16-1.34,1.74-2.01,0-.48-.01-.96-.02-1.44Z" style="fill: #eddacd; stroke-width: 0px;"/>
    <path d="M71.15,19.82c-9.61-1.19-19.21-2.38-28.19-3.5,3.14-3.46,20.04-1.88,28.16,3.53,0,0,.04-.04.04-.04Z" style="fill: #569a75; stroke-width: 0px;"/>
    <path d="M78.07,26.27c-5.8,3.29-11.6,6.58-17.39,9.86l-.9-1.63c5.83-3.15,11.67-6.3,17.5-9.45.26.41.53.81.79,1.22Z" style="fill: #416f56; stroke-width: 0px;"/>
    <path d="M95.1,42.38c-1.41.32-2.83.63-4.24.96-1.03.24-2.05.5-3.08.75,2.07-4.26,4.14-8.53,5.94-12.25.36,2.77.87,6.66,1.38,10.54Z" style="fill: #569a75; stroke-width: 0px;"/>
    <path d="M99.61,46.71c-.25-.38-.51-.76-.76-1.14,1.15-1.81,2.24-3.97,4.37-.87,0,.36,0,.71,0,1.07,0,0-.15.13-.15.13-1.15.27-2.3.54-3.45.81Z" style="fill: #cb8891; stroke-width: 0px;"/>
    <path d="M63.07,52.13c-.37.2-.75.41-1.12.61.37-.2.75-.41,1.12-.61Z" style="fill: #0d8d71; stroke-width: 0px;"/>
    <polygon points="71.11 19.86 71.36 20.09 71.15 19.82 71.11 19.86" style="fill: #569a75; stroke-width: 0px;"/>
    <path d="M95.16,49.79c.99-.66,1.99-1.32,2.98-1.98-.05,1.3-.1,2.6-.15,3.91-.09.11-.2.22-.25.35-.02.04.16.22.21.21.13-.04.24-.15.35-.23,1.37.26,2.73.52,4.76.9v-7.04s.15-.13.15-.13c1.22.72,2.43,1.44,3.65,2.16-.3,1.59-.59,3.19-.88,4.78-1.32,2.45-2.65,4.91-3.97,7.36-.69-.18-1.38-.36-2.07-.54,0-1.59,0-3.18,0-4.99-1.48.16-2.6.29-3.71.41,0,0-.18-.18-.18-.18-.3-1.66-.6-3.32-.9-4.99Z" style="fill: #cb8891; stroke-width: 0px;"/>
    <path d="M102.01,60.08c1.32-2.45,2.65-4.91,3.97-7.36,6.95,1.28,1.34,4.53,1.09,6.94-1.69.14-3.37.28-5.06.42Z" style="fill: #e1bdb9; stroke-width: 0px;"/>
    <path d="M79.01,49.62c0,.48.01.96.02,1.43-.58.67-1.16,1.34-1.74,2.02,0,0,.13-.04.13-.04-2.36,1.42-4.71,2.85-7.07,4.27,0,0,.15.35.38.42,2.06.61,4.14,1.18,6.21,1.76-1.78,1.05-3.47,2.27-5.35,3.1-2.11.93-4.35,1.68-6.6,2.18-2.3.51-5.05,1.83-6.45-1.5-1.38-3.28-.31-6.24,2.65-7.68,4.29-2.08,8.9-3.51,13.42-5.1,1.39-.49,2.93-.58,4.39-.85Z" style="fill: #09a486; stroke-width: 0px;"/>
    <path d="M95.16,49.79c.3,1.66.6,3.32.9,4.99-.32.34-.65.67-.97,1.01-.22.34-.44.68-.64,1.04,0,.02.21.16.33.25.15-.38.3-.77.45-1.15.34-.32.68-.64,1.01-.96,1.11-.12,2.22-.25,3.71-.41,0,1.81,0,3.4,0,4.99-3.95,2.98-8.14,3.1-12.52,1.06-.68-2.07-1.36-4.13-2.04-6.2l1.06-.74c1.79,1.3,3.58,2.6,4.21,3.05,1.15-2.59,2.33-5.26,3.51-7.93,0,0,.01.03.01.03.33.34.66.68.99,1.01l-.02-.04Z" style="fill: #e7aab5; stroke-width: 0px;"/>
    <path d="M94.17,48.79c-1.18,2.67-2.36,5.34-3.51,7.93-.63-.46-2.42-1.76-4.21-3.05l-1.06.74c.68,2.07,1.36,4.13,2.04,6.2-1.15.06-2.3.11-3.45.17-.7-2.43-1.41-4.87-2.44-8.44,1.68-.13,4.15-.32,6.62-.51,0,0,.22.21.22.21l-.26-.17c-.42-1.25-.83-2.5-1.25-3.75.24-.24.47-.49.71-.73,1.42.03,2.87-.09,4.26.14.83.14,1.56.83,2.34,1.27Z" style="fill: #cb8891; stroke-width: 0px;"/>
    <path d="M103.06,45.9v7.04c-2.03-.38-3.39-.64-4.76-.9l-.32-.32c.05-1.3.1-2.6.15-3.91,0,0-.04.05-.04.05.52-.35,1.04-.69,1.56-1.04,0,0-.04-.11-.05-.11,1.15-.27,2.3-.54,3.45-.81Z" style="fill: #e1bdb9; stroke-width: 0px;"/>
    <path d="M77.3,53.07c.58-.67,1.16-1.35,1.74-2.02-.58.67-1.16,1.34-1.74,2.02Z" style="fill: #1c7c6a; stroke-width: 0px;"/>
    <path d="M95.17,49.83c-.33-.34-.66-.68-.99-1.01.33.34.66.68.99,1.01Z" style="fill: #cb8891; stroke-width: 0px;"/>
    <path d="M99.66,46.82c-.52.35-1.04.69-1.56,1.04.52-.35,1.04-.69,1.56-1.04Z" style="fill: #cb8891; stroke-width: 0px;"/>
    <path d="M86.86,48.11c-.28-.39-.56-.78-.84-1.17.12-.12.25-.24.37-.37.39.27.79.54,1.18.81-.23.24-.47.48-.71.73Z" style="fill: #cb8891; stroke-width: 0px;"/>
    <path d="M86.01,46.95l-.32-.62c.23.08.45.17.68.25-.12.12-.24.25-.36.37Z" style="fill: #cb8891; stroke-width: 0px;"/>
    <path d="M98.3,52.04c-.12.08-.22.19-.35.23-.05.01-.23-.17-.21-.21.05-.13.16-.23.25-.35,0,0,.32.32.32.32Z" style="fill: #e1bdb9; stroke-width: 0px;"/>
    <path d="M95.22,55.92c-.15.38-.3.77-.46,1.15-.11-.08-.33-.23-.33-.25.2-.35.42-.69.64-1.04l.14.13Z" style="fill: #cb8891; stroke-width: 0px;"/>
    <path d="M95.09,55.78c.32-.33.65-.67.97-1.01,0,0,.17.17.18.18-.34.32-.68.64-1.01.96,0,0-.13-.13-.13-.13Z" style="fill: #cb8891; stroke-width: 0px;"/>
    <polygon points="88.11 51.86 88.37 52.03 88.15 51.82 88.11 51.86" style="fill: #eddacd; stroke-width: 0px;"/>
  </g>
</svg>