<?xml version="1.0" encoding="UTF-8"?>
<svg id="Layer_2" data-name="Layer 2" xmlns="http://www.w3.org/2000/svg" viewBox="0 0 122.1 72.56">
  <g id="Layer_1-2" data-name="Layer 1">
    <path d="M122.08,20.03c-.35,1.63-.7,3.27-1.05,4.9-1.32,1.66-2.65,3.31-3.97,4.97,0,0,0-.04,0-.04-.33.04-.67.08-1,.12-7.35-1.19-14.69-2.45-22.07-3.52-2.76-.4-5.59-.31-8.38-.44-.11.51-.21,1.02-.32,1.53,3.48,2.39,6.96,4.79,11.28,7.75-11.43,1.86-21.21.29-30.93-2.16-.74-.46-1.47-.92-2.21-1.37,1.12-.43,2.9-.57,3.23-1.34,1.13-2.62-3.65-9.19-6.05-9.51,1.27-1.77,2.65-3.8,4.14-5.75,2.56-3.33,5.2-6.61,7.8-9.92-.8,2.29-1.45,4.64-2.43,6.84-2.1,4.72.59,10.8,5.31,10.81,7.59.02,15.18-.52,22.76-1,.83-.05,1.59-1.25,2.38-1.92,4.98-4.79-2.1-8.45-.66-13.4-1.53.53-2.4.84-3.28,1.15-.23-.73-.47-1.46-.7-2.19-1.95-4.35-2.83.99-4.35.49-2.56-3.53-5.18-6.27-8.76-.97-.19.28-1.2,0-1.82-.02-1.3-.11-2.6-.22-3.9-.32-1.37.09-2.74.18-4.11.26,1.05-1.01,2.09-2.03,3.14-3.04,15.4-4.21,29.52-1.72,41.84,8.57,2.03,1.7,2.78,4.93,4.11,7.46,0,.68-.01,1.37-.02,2.05ZM66.15,18.71c.11-.06.23-.12.34-.18-.1-.08-.19-.22-.29-.23-.11-.01-.23.1-.34.16.1.08.19.16.29.24Z" style="fill: #09a486; stroke-width: 0px;"/>
    <path d="M.42,46.93c4.79-3.96,9.57-7.91,14.36-11.86,5.12-1.26,10.23-2.52,15.35-3.78,2.19-.41,4.38-.81,6.57-1.22,2.64,0,5.28,0,7.92,0,1.51.31,3.03.63,4.54.94,1.48.04,2.97.07,4.45.11,1.06.34,2.12.69,3.17,1.03.68.62,1.36,1.24,2.04,1.86-16.11-3.18-30.11,1.13-43.15,11.5,2.62,1.87,4.46,3.19,6.3,4.51-6.81,1.13-13.62,2.26-20.31,3.37-.58-2.98-.92-4.72-1.26-6.45Z" style="fill: #eef1b7; stroke-width: 0px;"/>
    <path d="M76.14,1.95c-1.05,1.01-2.09,2.03-3.14,3.04-.16.08-.31.17-.45.27-2.61,3.3-5.24,6.58-7.81,9.92-1.49,1.94-2.87,3.98-4.14,5.75,2.4.32,7.18,6.89,6.05,9.51-.33.77-2.11.91-3.22,1.34-1.37-.28-2.75-.56-4.13-.85-1.05-.96-2.1-1.92-3.15-2.88-5.82-9.08-4.68-15.57,4.79-20.98,4.56-2.6,10.11-3.46,15.21-5.11Z" style="fill: #77c7a3; stroke-width: 0px;"/>
    <path d="M117.06,29.9c1.32-1.66,2.65-3.31,3.97-4.97,2.17,4.44-.97,4.65-3.97,4.97Z" style="fill: #51c3cc; stroke-width: 0px;"/>
    <path d="M56.15,28.04c1.05.96,2.1,1.92,3.15,2.88-.84.41-1.67.82-2.51,1.23-1.06-.34-2.11-.69-3.17-1.03.84-1.03,1.69-2.05,2.53-3.07Z" style="fill: #51c3cc; stroke-width: 0px;"/>
    <path d="M116.05,29.98c.33-.04.67-.08,1-.12.33,3-1.68,3.18-3.84,3.19,0,0-.23-.27-.23-.27,1.02-.93,2.04-1.87,3.06-2.8Z" style="fill: #51c3cc; stroke-width: 0px;"/>
    <path d="M36.7,30.07c-2.19.41-4.38.81-6.57,1.22,2.19-.4,4.38-.81,6.57-1.22Z" style="fill: #51c3cc; stroke-width: 0px;"/>
    <path d="M49.17,31.01c-1.51-.31-3.03-.62-4.54-.94,1.51.31,3.03.62,4.54.94Z" style="fill: #51c3cc; stroke-width: 0px;"/>
    <path d="M122.08,20.03c0-.68.01-1.37.02-2.05,0,.68-.01,1.37-.02,2.05Z" style="fill: #51c3cc; stroke-width: 0px;"/>
    <path d="M21.99,50.02c-1.84-1.32-3.68-2.63-6.3-4.51,13.04-10.37,27.04-14.68,43.15-11.5,5.47,1.92,10.93,3.85,16.39,5.77,2.01,2.87,4.03,5.74,6.04,8.61-2.05,2.85-3.56,6.46-6.25,8.43-15.97,11.64-33.88,8.31-51.5,5.69-4.25-.63-4.76-4.52-1.24-7.13,2.09-1.55,2.86-2.45-.2-3.44-.03-.64-.06-1.27-.09-1.91Z" style="fill: #8fc586; stroke-width: 0px;"/>
    <path d="M22.08,51.93c3.06.99,2.29,1.89.2,3.44-3.52,2.61-3.01,6.5,1.24,7.13,17.62,2.62,35.53,5.95,51.5-5.69,2.7-1.97,4.2-5.58,6.25-8.43,1.87,4.33.82,8.39-2.4,11.27-8.52,7.62-18.49,11.99-30.16,11.73-1.81-.11-3.62-.32-5.44-.32-10.23,0-20.03-2-29.44-6.02-2.74-1.17-5.08-2.56-4.69-6.1,4.74.32,8.49-1.31,11.02-5.49.4-.65,1.26-1.02,1.91-1.52Z" style="fill: #416f56; stroke-width: 0px;"/>
    <path d="M116.05,29.98c-1.02.93-2.04,1.87-3.06,2.8-6.36-1.2-12.71-2.39-20.41-3.84,3.03,2.21,5.05,3.68,7.22,5.26-2.41,4.08-6,4.94-9.89,4.8-5.25-.18-10.49-.65-15.74-.99-2.85-1.63-5.69-3.25-8.54-4.88,9.72,2.45,19.5,4.02,30.93,2.16-4.31-2.97-7.8-5.36-11.28-7.75.11-.51.21-1.02.32-1.53,2.8.13,5.62.05,8.38.44,7.37,1.06,14.71,2.33,22.07,3.52Z" style="fill: #1c7c6a; stroke-width: 0px;"/>
    <path d="M9.15,58.93c-.4,3.54,1.95,4.93,4.69,6.1,9.4,4.03,19.21,6.02,29.44,6.02,1.81,0,3.63.21,5.44.32-12.28,3.04-23.89-.33-35.35-4.05-3.09-1-5.67-3.62-9.11-5.91,1.93-1.36,2.95-2.07,3.96-2.78.34,0,.66.11.94.3Z" style="fill: #135d54; stroke-width: 0px;"/>
    <path d="M9.15,58.93c-.28-.2-.6-.3-.94-.3,1.57-1.37,3.13-2.73,5.05-4.41-2.65,0-4.9.04-7.15-.01-2.04-.04-4.07-.17-6.11-.26.14-2.34.28-4.68.42-7.02.34,1.73.68,3.47,1.26,6.45,6.7-1.11,13.51-2.24,20.31-3.37.03.64.06,1.27.09,1.91-.65.5-1.52.87-1.91,1.52-2.54,4.18-6.28,5.8-11.02,5.49Z" style="fill: #77c7a3; stroke-width: 0px;"/>
    <path d="M65.63,33.14c2.85,1.63,5.69,3.25,8.54,4.88.35.59.71,1.17,1.06,1.76-5.46-1.92-10.92-3.85-16.39-5.77-.68-.62-1.36-1.24-2.05-1.86.83-.41,1.67-.82,2.51-1.23,1.38.28,2.76.57,4.13.85.73.45,1.46.91,2.2,1.37Z" style="fill: #40b7ba; stroke-width: 0px;"/>
    <path d="M96.64,7.74c.87-.31,1.75-.61,3.28-1.15-1.45,4.95,5.64,8.61.66,13.4-2.5-.03-5-.05-7.5-.07.14-3.96-2.65-3-4.92-2.92-.18-2.37-.36-4.75-.54-7.12-.56-.04-1.11-.08-1.67-.12-.59,2.08-1.19,4.16-1.78,6.24-1.36-.12-2.72-.24-4.08-.36.17,1.68.34,3.36.51,5.04l-2.57.17c.04-4.69-3.19-4.18-6.25-3.93.25-1.35.21-2.84.79-4.03,1.36-2.8,3.01-5.46,4.54-8.17,1.3.11,2.6.22,3.9.33,2.26,2.7,8.5,3.27,10.57.98,1.52.5,2.4-4.83,4.35-.48-1.28,2.13-2.56,4.26-3.84,6.39-.05.15-.1.29-.15.43.08-.11.17-.22.25-.34,1.35.34,2.71.68,4.92,1.24-.19-2.2-.33-3.87-.48-5.54Z" style="fill: #cb8891; stroke-width: 0px;"/>
    <path d="M78.03,20.85c.86-.06,1.71-.12,2.57-.17,1.83.35,3.66.7,5.5,1.05,1.4-.12,2.81-.24,4.21-.36.92-.48,1.85-.96,2.77-1.44,2.5.02,5.01.04,7.5.07-.8.67-1.55,1.87-2.38,1.92-7.58.48-15.17,1.02-22.76,1-4.72-.01-7.41-6.09-5.31-10.81.98-2.21,1.63-4.56,2.43-6.84.15-.1.3-.19.46-.27,1.37-.09,2.74-.17,4.11-.26-1.53,2.71-3.18,5.37-4.54,8.17-.58,1.19-.55,2.67-.79,4.03,1,3.03,2.56,5.17,6.25,3.93Z" style="fill: #1c7c6a; stroke-width: 0px;"/>
    <path d="M91.59,6.04c-2.08,2.29-8.32,1.71-10.57-.98.62.02,1.63.29,1.82.02,3.58-5.3,6.2-2.57,8.76.97Z" style="fill: #eddacd; stroke-width: 0px;"/>
    <path d="M96.64,7.74c.14,1.67.29,3.34.48,5.54-2.21-.56-3.57-.9-4.92-1.24,0,0-.1-.1-.1-.1,1.28-2.13,2.56-4.26,3.84-6.39.23.73.47,1.46.7,2.19Z" style="fill: #eddacd; stroke-width: 0px;"/>
    <path d="M66.15,18.71c-.1-.08-.19-.16-.29-.24.11-.06.23-.17.34-.16.1,0,.2.15.29.23-.11.06-.23.12-.34.18Z" style="fill: #1c7c6a; stroke-width: 0px;"/>
    <path d="M86.09,21.73c-1.83-.35-3.67-.7-5.5-1.05-.17-1.68-.34-3.36-.51-5.04,1.36.12,2.72.24,4.08.36,0,0-.01-.02-.01-.01.65,1.91,1.29,3.82,1.94,5.74Z" style="fill: #e7aab5; stroke-width: 0px;"/>
    <path d="M84.17,16.01c.59-2.08,1.19-4.16,1.78-6.24.56.04,1.11.08,1.67.12.18,2.37.36,4.75.54,7.12,0,0,0-.01,0-.01-1.34-.33-2.68-.67-4.01-1h.01Z" style="fill: #e7aab5; stroke-width: 0px;"/>
    <path d="M93.08,19.93c-.92.48-1.85.96-2.77,1.44-3.31-.19-2.54-2.37-2.14-4.38,0,0,0,.01,0,.01,2.26-.07,5.05-1.04,4.92,2.92Z" style="fill: #e7aab5; stroke-width: 0px;"/>
    <path d="M78.03,20.85c-3.69,1.25-5.25-.9-6.25-3.93,3.06-.25,6.29-.76,6.25,3.93Z" style="fill: #e1bdb9; stroke-width: 0px;"/>
    <path d="M92.2,12.04c-.08.11-.17.22-.25.34.05-.14.1-.29.15-.43,0,0,.1.1.1.1Z" style="fill: #eddacd; stroke-width: 0px;"/>
    <path d="M88.17,16.99c-.4,2-1.18,4.19,2.14,4.38-1.41.12-2.81.24-4.21.36-.65-1.91-1.29-3.82-1.94-5.74,1.34.33,2.68.67,4.01,1Z" style="fill: #cb8891; stroke-width: 0px;"/>
  </g>
</svg>