<?xml version="1.0" encoding="UTF-8"?>
<svg id="Layer_2" data-name="Layer 2" xmlns="http://www.w3.org/2000/svg" viewBox="0 0 61.78 32.03">
  <g id="Layer_1-2" data-name="Layer 1">
    <path d="M40.56.55c1.13.2,2.26.39,3.38.58.35.23.7.46,1.05.7.15-.21.33-.24.53-.07,1.71.68,3.42,1.36,5.13,2.05,0,0-.08-.04-.08-.04.69.35,1.38.7,2.08,1.05,0,0-.04-.05-.04-.05,1.31,5.29,3.19,10.65-2.26,14.95-3.54,2.79-7,5.68-10.5,8.53-.34-.4-.68-.81-1.02-1.21.11-1.6.23-3.2.34-4.79-3.29,8.11-3.33,8.16-12.89,6.84-5.24-.73-10.46-1.59-15.69-2.4-1.51-.84-3.02-1.68-4.53-2.52.01-.38.03-.75.04-1.13,7.11-1.48,14.23-2.95,21.34-4.43v-1.23c-6.33-.54-12.66-1.08-18.98-1.62C14.74,7.47,23.5,4.55,33.47,3.73c2.44-.2,4.73-2.08,7.09-3.19Z" style="fill: #09a486; stroke-width: 0px;"/>
    <path d="M10.58,26.67c5.23.8,10.45,1.67,15.7,2.4,9.56,1.32,9.6,1.27,12.89-6.84-.11,1.6-.23,3.2-.34,4.79.34.4.68.81,1.02,1.21,3.5-2.85,6.96-5.74,10.5-8.53,5.46-4.3,3.58-9.65,2.26-14.95,4.9,1.38,8.08,4.63,9,9.52.95,5.04-1.93,8.69-5.93,11.14-12.17,7.47-25.32,7.86-38.84,4.84-2.09-.47-4.12-1.22-6.17-1.83-.03-.58-.06-1.17-.09-1.75Z" style="fill: #056c5d; stroke-width: 0px;"/>
    <path d="M40.56.55c-2.36,1.11-4.66,2.99-7.09,3.19-9.96.82-18.73,3.74-25.02,12.02-.93.41-1.86.82-2.79,1.23-1.89.1-3.77.21-5.66.31.4-2.33.03-5.29,1.34-6.87C6.13,4.65,12.51.8,20,.2c6.8-.54,13.7.18,20.56.35Z" style="fill: #77c7a3; stroke-width: 0px;"/>
    <path d="M5.66,16.98c.93-.41,1.86-.82,2.79-1.23,6.32.54,12.65,1.08,18.97,1.62v1.23c-7.1,1.48-14.22,2.95-21.33,4.43-.01.38-.03.75-.04,1.13,1.51.84,3.02,1.68,4.53,2.52.03.58.06,1.17.09,1.75-.3-.13-.65-.19-.9-.39-2-1.53-3.98-3.08-5.96-4.62,1.9-1.46,3.81-2.92,5.38-4.13-.8-.52-2.17-1.41-3.53-2.3Z" style="fill: #1c7c6a; stroke-width: 0px;"/>
    <path d="M50.65,3.8c-1.71-.68-3.42-1.36-5.13-2.05,1.71.68,3.42,1.36,5.13,2.05Z" style="fill: #056c5d; stroke-width: 0px;"/>
    <path d="M52.65,4.81c-.69-.35-1.38-.7-2.08-1.05.69.35,1.38.7,2.08,1.05Z" style="fill: #056c5d; stroke-width: 0px;"/>
    <path d="M44.99,1.83c-.35-.23-.7-.46-1.05-.7.35.23.7.46,1.05.7Z" style="fill: #056c5d; stroke-width: 0px;"/>
  </g>
</svg>