<?xml version="1.0" encoding="UTF-8"?>
<svg id="Layer_2" data-name="Layer 2" xmlns="http://www.w3.org/2000/svg" viewBox="0 0 80.22 51.89">
  <g id="Layer_1-2" data-name="Layer 1">
    <path d="M56.15,35.85c-1.29,1.38-2.59,2.76-4.91,5.23,3.63.8,6.01,1.29,8.38,1.85,1.7.4,3.38.89,5.06,1.33-5.13,9.3-14.63,10.12-22.01,2.3-4.17-4.41-9.59-6.66-15.89-5.95-5.19-1.27-10.38-2.55-15.58-3.82,0-.92,0-1.83,0-2.75,3.97,0,7.94.01,11.91.02,1.02.23,2.05.47,3.07.7,5.31-.32,10.8.06,15.86-1.25,2.79-.72,4.84-4.29,7.22-6.57,5.34-5,10.67-10,16.01-15,4.78-3.83,9.57-7.65,14.95-11.95-1.84,4.7-3.45,8.79-5.06,12.88-.25.33-.49.66-.74,1-.1.68-.19,1.36-.29,2.04-6,6.65-11.99,13.29-17.99,19.94Z" style="fill: #faf6ec; stroke-width: 0px;"/>
    <path d="M11.2,34.05c0,.92,0,1.83,0,2.75-3.73-.36-7.47-.73-11.2-1.09.04-.55.09-1.11.13-1.66h11.07Z" style="fill: #e4ede9; stroke-width: 0px;"/>
    <path d="M26.18,34.76c-1.02-.23-2.05-.47-3.07-.7,1.02.23,2.05.47,3.07.7Z" style="fill: #7dc4e5; stroke-width: 0px;"/>
  </g>
</svg>