<?xml version="1.0" encoding="UTF-8"?>
<svg id="Layer_2" data-name="Layer 2" xmlns="http://www.w3.org/2000/svg" viewBox="0 0 136.67 140.88">
  <g id="Layer_1-2" data-name="Layer 1">
    <path d="M92.03,69.4c7.72,1.76,15.45,3.52,23.17,5.28.27.25.53.51.8.77,0,0-.09-.08-.09-.08,1.17,1.1,2.34,2.2,3.51,3.3,3.35,6.54,4.42,13.13,1.21,19.78-7.13-2.92-13.62-5.57-20.1-8.22,4.64,3.39,9.68,5.81,14.7,8.25,3.55,1.73,3.85,4.06.64,6.26-3.5,2.4-7.29,4.38-10.95,6.54-1.36,0-2.72,0-4.07,0-1.29-.15-2.57-.31-3.86-.46-.63-.12-1.27-.23-1.9-.35-.37-.36-.75-.72-1.12-1.08-.6-4.06-1.21-8.12-1.66-11.15-1.96,3.81-4.14,8.06-6.32,12.31-1.43-.65-2.85-1.3-4.32-1.96-.19.56-.45.94-.36,1.13.29.58.72,1.09,1.09,1.63-.75.37-1.5.74-2.25,1.11-.99,0-2.11-.31-2.94.05-.88.38-1.5,1.39-2.23,2.12-.72.14-1.44.27-2.16.41-.32.1-.63.19-.95.29-.31-.03-.62,0-.92.11-1.03.29-2.07.58-3.1.87-1.42.54-2.85,1.08-4.27,1.62-5.47.09-10.95.19-16.42.28-2.27-.57-4.55-1.15-8.24-2.08,4.44-3.08,7.75-5.38,11.07-7.67,1.07-.5,2.15-.99,3.22-1.49-.11-.61-.22-1.23-.33-1.84-13.6-1.31-26.97,1.57-40.39,3.49-.18-.14-.37-.28-.56-.42-.71-2.19-1.3-4.43-2.16-6.57-1.95-4.85-1.94-9.68,1.5-13.61,2.78-3.17,6.04-6.77,9.81-8.08,11.85-4.12,23.95-7.65,36.14-10.63,11.5-2.81,23.22-1.59,34.82.08ZM71.52,93.91c-4.6,2.35-9.2,4.7-13.8,7.05.35.59.69,1.18,1.04,1.76,4.46-2.73,8.91-5.45,13.37-8.18.19-.23.38-.45.58-.68-.39.01-.79.03-1.18.04ZM63,83.75c-7.36-2.81-14.85-3.02-22.39-1.67-.01.56-.03,1.11-.04,1.67h22.43ZM66.16,84.79c-.13-.05-.27-.12-.4-.12-.04,0-.08.21-.12.32.13.05.27.12.4.12.04,0,.08-.21.12-.32Z" style="fill: #8fc586; stroke-width: 0px;"/>
    <path d="M.1,81.44c0-5.01.02-10.02.02-15.04,1.9-.6,3.76-1.38,5.7-1.78,3.87-.81,4.86-3.42,3.92-6.68-.94-3.27-.51-4.81,2.98-6.34,5.3-2.31,5.3-5.87-.1-8.13-3.8-1.59-8.31-1.45-12.51-2.08,0-.33,0-.66,0-1,4.23-.49,8.07-1.35,10.09-5.96.5-1.13,2.97-1.83,4.6-1.96,6.12-.51,6.85-1.2,7.19-7.53.09-1.69.69-3.35,1.05-5.02.64.09,1.28.18,1.92.28,0,2.21-.23,4.46.08,6.62.21,1.48.89,3.86,1.84,4.12,6.18,1.73,12.97,5.19,18.66,3.94,12-2.63,23.56-7.51,35.05-12.09,4.58-1.82,4.29-5.63-.23-7.96-4.55-2.35-9.37-4.18-13.98-6.43-1.31-.64-2.31-1.94-3.45-2.94,14.04,2.86,27.04,8.22,38.58,16.73,7.08,5.23,12.53,11.89,14.76,20.67,2.01,7.91-.89,11.47-9.09,11.54-13.63.11-27.27.29-40.9.45-.81-.03-1.62-.06-2.43-.1-4.65-.6-9.31-1.19-13.96-1.79-.14.55-.28,1.1-.41,1.66,4.35,3.52,8.69,7.04,13.27,10.75-1.74,1.02-2.7,1.59-3.67,2.15-6.34.72-12.68,1.45-19.02,2.17.96-3.49,2.47-6.95,2.65-10.47.09-1.86-1.71-4.78-3.42-5.56-4.04-1.84-8.49-2.84-12.85-3.89-4.31-1.04-6.73.61-6.35,5.01.54,6.35,1.95,12.62,2.98,18.92-5.29,2.64-10.59,5.28-15.88,7.92-2.36-.07-4.73-.13-7.09-.2ZM103.95,39.89c0-4.72-3.51-7.36-9.63-6.38-13.01,2.08-26.2,3.34-38.75,7.8-2.63.93-5.52,1.1-8.15,2.03-.93.33-1.41,1.9-2.1,2.9.92.59,1.8,1.61,2.76,1.69,7.25.59,14.51.99,21.77,1.47,6.94.46,13.9.7,20.8,1.49,5.41.62,13.31-5.59,13.3-11Z" style="fill: #0d8d71; stroke-width: 0px;"/>
    <path d="M66.29,54.87c13.63-.15,27.26-.34,40.9-.45,8.19-.07,11.09-3.62,9.09-11.54-2.23-8.78-7.67-15.45-14.76-20.67-11.54-8.51-24.54-13.88-38.58-16.74-8.9-.76-17.79-2.04-26.7-2.15-12.03-.14-24.07.62-36.11,1,0-.94-.02-1.88-.03-2.81C24.63-1.09,49.1-.88,72.78,6.57c10.66,3.36,20.9,8.58,30.64,14.16,8.2,4.7,14.07,12.19,16.42,21.73,1.93,7.85-2.68,13.77-10.68,13.63-14.29-.25-28.58-.8-42.87-1.23Z" style="fill: #1c7c6a; stroke-width: 0px;"/>
    <path d="M7.19,81.64c5.29-2.64,10.59-5.28,15.88-7.92,5.66-1.34,11.33-2.67,16.99-4.01,6.34-.72,12.68-1.45,19.01-2.17,5.84-.02,11.67-.03,17.51-.05,5.17.63,10.34,1.26,15.47,1.9-11.65-1.67-23.37-2.89-34.86-.08-12.19,2.98-24.29,6.52-36.14,10.63-3.77,1.31-7.03,4.9-9.81,8.08-3.45,3.94-3.45,8.77-1.5,13.61.86,2.13,1.45,4.38,2.16,6.57-.47.03-.94.07-1.41.1-1.47-.7-2.95-1.4-4.42-2.1,0,0,.04.06.04.06-.69-.66-1.38-1.31-2.07-1.97,0,0-.01.04-.01.04-.34-.34-.68-.67-1.01-1.01,0,0,.03.02.03.02-.34-.67-.68-1.35-1.02-2.02,0,0,.02-.01.02-.01-.66-.92-1.33-1.84-1.99-2.76C.03,95.48.02,92.39,0,89.3c2.4-2.55,4.8-5.11,7.19-7.66Z" style="fill: #e1f0e3; stroke-width: 0px;"/>
    <path d="M76.6,67.49c-5.84.02-11.68.03-17.51.05.97-.57,1.93-1.13,3.67-2.15-4.57-3.71-8.92-7.23-13.27-10.75.14-.55.28-1.1.41-1.66,4.65.6,9.31,1.19,13.96,1.79-3.41,0-6.83,0-11.67,0,8.44,5.36,14.24,12.96,24.41,12.72Z" style="fill: #1c7c6a; stroke-width: 0px;"/>
    <path d="M119.42,78.66c-1.17-1.1-2.34-2.2-3.51-3.3.68-.02,1.36-.04,2.04-.06,4.13,2.57,8.26,5.14,12.39,7.71-.14.14-.27.28-.41.42-3.5-1.59-7.01-3.18-10.51-4.77Z" style="fill: #135d54; stroke-width: 0px;"/>
    <path d="M116,75.44c-.27-.26-.53-.51-.8-.77.27.26.53.51.8.77Z" style="fill: #135d54; stroke-width: 0px;"/>
    <path d="M133.32,86.05c4.53,6.25,4.75,12.07-1.01,16.81-5.28,4.34-11.74,7.27-17.76,10.68-1.7.96-3.68,1.43-6.3,2.41,2.86,1.79,5.29,3.09,7.46,4.71,5.35,3.99,5.66,9.85-.18,12.92-5.75,3.02-12.39,4.33-18.64,6.4.05-.48.11-.96.16-1.44,1.31-2.05,2.61-4.1,3.92-6.14,4.14-.2,3.03-3.81,3.96-6.09,3.54-5.16,3.34-6.61-.95-7.07.21-2.11.42-4.23.62-6.34l.25-.34c1.63.34,3.47,1.35,4.84.91,4.55-1.45,9.11-3.08,13.33-5.27,10.98-5.71,13.33-11.2,9.91-21.77.13-.12.26-.24.39-.37Z" style="fill: #135d54; stroke-width: 0px;"/>
    <path d="M97.04,138.54c-.05.48-.11.96-.16,1.44-10.33,1.76-21.78.91-30.06-2.44,1.1-1.81,2.14-3.53,3.77-6.23-3.08.61-5.36,1.43-7.63,1.4-2.41-.03-6.12-.11-6.92-1.51-1.21-2.12-.44-5.39-.39-8.18.01-.57.58-1.12,1.17-2.19-3.84-.54-7.37-1.04-10.89-1.54.4-.36.8-.72,1.2-1.08,5.47-.09,10.95-.19,16.42-.28.19.23.39.46.59.68-1.88,1.28-4.25,2.21-5.49,3.95-1.24,1.76-2.21,4.59-1.65,6.44.38,1.23,3.77,2.34,5.64,2.12,3.58-.43,7.06-1.77,10.52-2.92.7-.23,1.62-1.42,1.52-2.01-.11-.68-1.17-1.52-1.96-1.7-1.53-.36-3.16-.31-4.74-.44.04-.45.07-.9.11-1.36,1.93-.11,3.86-.23,5.79-.34.4,0,.81.01,1.21.02,2.2,1.99,2.69,6.62,7.38,4.77.97-.06,1.94-.11,2.91-.17,1.49.41,2.98.83,4.47,1.24,1.67-.22,3.33-.44,5-.66,1-.47,1.99-.93,2.99-1.4.74.07,1.47.15,2.21.22,1.62-.03,3.23-.05,4.85-.08-.93,2.28.18,5.89-3.96,6.09-2.4-.91-4.98-2.8-7.15-2.41-1.68.3-2.85,3.45-3.49,4.32-1.84-1.73-3.58-4.59-6.01-5.39-3.97-1.32-11.32,3.36-13.87,8.01,8.83,2.52,17.66,2.85,26.6,1.61Z" style="fill: #1c7c6a; stroke-width: 0px;"/>
    <path d="M12.46,108.62c13.42-1.92,26.79-4.8,40.39-3.49.11.61.22,1.23.33,1.84-1.07.5-2.15.99-3.22,1.49-.99-.66-1.99-1.32-2.98-1.97-9.83,1.25-19.65,2.59-29.51,3.64-1.6.17-3.34-.97-5.02-1.51Z" style="fill: #1c7c6a; stroke-width: 0px;"/>
    <path d="M46.99,106.49c.99.66,1.99,1.32,2.98,1.97-3.31,2.3-6.62,4.59-11.07,7.67,3.7.93,5.97,1.51,8.24,2.08-.4.36-.8.72-1.2,1.08-2.69-.82-5.37-1.65-8.06-2.47,1.87-2.08,3.76-4.14,5.61-6.23,1.19-1.34,2.33-2.73,3.49-4.1Z" style="fill: #0d8d71; stroke-width: 0px;"/>
    <path d="M6.08,106.21c1.47.7,2.94,1.4,4.42,2.1-1.47-.7-2.94-1.4-4.42-2.1Z" style="fill: #40b7ba; stroke-width: 0px;"/>
    <path d="M.05,98.56c.66.92,1.33,1.84,1.99,2.76-.64.02-1.29.05-1.93.07-.02-.94-.04-1.89-.06-2.83Z" style="fill: #40b7ba; stroke-width: 0px;"/>
    <path d="M4.04,104.3c.69.66,1.38,1.31,2.07,1.97-.69-.66-1.38-1.31-2.07-1.97Z" style="fill: #40b7ba; stroke-width: 0px;"/>
    <path d="M2.02,101.33c.34.67.68,1.35,1.02,2.02-.34-.67-.68-1.35-1.02-2.02Z" style="fill: #40b7ba; stroke-width: 0px;"/>
    <path d="M132.42,84.93c.3.37.59.75.89,1.12-.13.12-.26.24-.38.37-.34-.33-.68-.65-1.02-.97.17-.17.34-.34.51-.51Z" style="fill: #135d54; stroke-width: 0px;"/>
    <path d="M131.42,83.93c.33.33.67.67,1,1-.17.17-.34.35-.51.51-.33-.33-.67-.67-1-1,.17-.17.34-.34.51-.52Z" style="fill: #135d54; stroke-width: 0px;"/>
    <path d="M130.34,83.01c.36.3.72.61,1.08.91-.17.17-.34.35-.51.51-.33-.34-.65-.67-.98-1.01.13-.14.27-.28.41-.42Z" style="fill: #135d54; stroke-width: 0px;"/>
    <path d="M3.01,103.33c.34.34.68.67,1.01,1.01-.34-.34-.68-.67-1.01-1.01Z" style="fill: #40b7ba; stroke-width: 0px;"/>
    <path d="M.12,4.32c12.04-.38,24.08-1.14,36.11-1,8.91.1,17.8,1.39,26.7,2.15,1.14,1,2.13,2.3,3.45,2.94,4.61,2.25,9.43,4.07,13.98,6.43,4.52,2.34,4.81,6.14.23,7.96-11.49,4.58-23.05,9.46-35.05,12.09-5.68,1.25-12.48-2.22-18.66-3.94-.95-.27-1.63-2.64-1.84-4.12-.31-2.17-.08-4.41-.08-6.62-.64-.09-1.28-.19-1.92-.28-.36,1.67-.96,3.33-1.05,5.02-.35,6.33-1.07,7.02-7.19,7.53-1.63.14-4.11.83-4.6,1.96-2.01,4.61-5.86,5.47-10.09,5.96,0-12.02,0-24.05,0-36.07Z" style="fill: #039375; stroke-width: 0px;"/>
    <path d="M.12,41.39c4.2.63,8.71.5,12.51,2.08,5.4,2.26,5.4,5.82.1,8.13-3.49,1.52-3.93,3.07-2.98,6.34.94,3.27-.05,5.87-3.92,6.68-1.94.4-3.8,1.17-5.7,1.78,0-8.34,0-16.68,0-25.01Z" style="fill: #039375; stroke-width: 0px;"/>
    <path d="M7.19,81.64c-2.4,2.55-4.8,5.11-7.19,7.66.03-2.62.07-5.24.1-7.86,2.36.07,4.73.13,7.09.2Z" style="fill: #40b7ba; stroke-width: 0px;"/>
    <path d="M129.93,83.43c.33.34.65.67.98,1.01.33.33.67.67,1,1,.34.33.68.65,1.02.98,3.43,10.57,1.08,16.06-9.91,21.77-4.23,2.2-8.79,3.82-13.33,5.27-1.38.44-3.22-.56-4.84-.91.02-.43.04-.85.06-1.28,3.66-2.16,7.45-4.14,10.95-6.54,3.21-2.2,2.91-4.53-.64-6.26-5.02-2.45-10.06-4.86-14.7-8.25,6.49,2.65,12.97,5.3,20.1,8.22,3.22-6.66,2.14-13.24-1.21-19.78,3.5,1.59,7.01,3.18,10.51,4.77Z" style="fill: #416f56; stroke-width: 0px;"/>
    <path d="M93.95,109.39c.37.36.75.72,1.12,1.08.65.28,1.3.57,1.96.85-.04.68-.08,1.36-.12,2.04-1,.61-2,1.21-3,1.82-2.41-3.98-4.63.16-6.94.17l.02.04c-.34-.35-.69-.69-1.03-1.04,0,0,.03.03.03.03-.35-.34-.69-.69-1.04-1.03,0,0,.03.04.03.04-.33-.38-.66-.76-1-1.14-.54-.3-1.07-.61-1.61-.91-.37-.54-.8-1.05-1.09-1.63-.1-.19.17-.56.36-1.13,1.47.67,2.89,1.31,4.32,1.96,1-.21,1.98-.48,2.99-.61,1.66-.23,3.33-.37,4.99-.55Z" style="fill: #eddacd; stroke-width: 0px;"/>
    <path d="M82.39,111.36c.54.3,1.07.61,1.6.91.33.38.66.76,1,1.14,0,0-.03-.04-.03-.04.35.34.69.69,1.04,1.03,0,0-.03-.03-.03-.03.34.35.69.69,1.03,1.04,0,0-.02-.04-.02-.04-.99.95-1.85,2.12-3.01,2.79-1.64.95-3.49,1.52-5.25,2.26-.26-.43-.53-.85-.79-1.28.74-2.22,1.48-4.44,2.22-6.66.75-.37,1.5-.74,2.25-1.11Z" style="fill: #e1bdb9; stroke-width: 0px;"/>
    <path d="M63,83.75h-22.43c.01-.56.03-1.11.04-1.67,7.54-1.35,15.02-1.13,22.39,1.67Z" style="fill: #569a75; stroke-width: 0px;"/>
    <path d="M93.95,109.39c-1.66.18-3.33.32-4.99.55-1.01.14-2,.4-2.99.61,2.18-4.25,4.37-8.5,6.32-12.31.45,3.02,1.05,7.08,1.66,11.15Z" style="fill: #569a75; stroke-width: 0px;"/>
    <path d="M72.13,94.55c-4.46,2.73-8.91,5.45-13.37,8.18-.35-.59-.69-1.18-1.04-1.76,4.6-2.35,9.2-4.7,13.8-7.05.19.22.39.44.61.64Z" style="fill: #416f56; stroke-width: 0px;"/>
    <path d="M80.14,112.47c-.74,2.22-1.48,4.44-2.21,6.66-.97.13-1.95.26-2.92.39.31-1.06.62-2.12.93-3.17-.32-.57-.65-1.14-.97-1.7.73-.73,1.35-1.74,2.23-2.12.83-.36,1.95-.06,2.94-.05Z" style="fill: #0d8d71; stroke-width: 0px;"/>
    <path d="M74.97,114.64c.32.57.65,1.14.97,1.71-3.93.76-7.85,1.52-11.78,2.27-.2-.22-.4-.45-.59-.68,1.42-.54,2.85-1.08,4.27-1.62,1.03-.29,2.07-.58,3.1-.87.3-.1.6-.14.92-.11.32-.1.63-.19.95-.29.72-.14,1.44-.27,2.16-.41Z" style="fill: #1c7c6a; stroke-width: 0px;"/>
    <path d="M96.91,113.36c.04-.68.08-1.36.12-2.04-.02-.17-.04-.34-.06-.51,1.29.15,2.57.31,3.86.46,0,0,.11.2.11.2-.33.22-.65.44-.98.66-1.01.41-2.02.82-3.03,1.23,0,0-.02-.01-.02-.01Z" style="fill: #cb8891; stroke-width: 0px;"/>
    <path d="M104.91,111.27c-.02.43-.04.85-.06,1.28,0,0-.26.34-.26.34-1.15.28-2.3.56-3.46.85l-.21-1.31c.07-.31.07-.63.02-.95,0,0-.11-.2-.11-.2,1.36,0,2.72,0,4.07,0Z" style="fill: #135d54; stroke-width: 0px;"/>
    <path d="M70.94,115.45c-1.03.29-2.07.58-3.1.87,1.03-.29,2.07-.58,3.1-.87Z" style="fill: #0d8d71; stroke-width: 0px;"/>
    <path d="M96.97,110.82c.02.17.03.34.06.51-.65-.28-1.3-.57-1.96-.85.63.12,1.27.23,1.9.35Z" style="fill: #569a75; stroke-width: 0px;"/>
    <path d="M66.16,84.79c-.04.11-.08.32-.12.32-.13,0-.27-.08-.4-.12.04-.11.08-.32.12-.32.13,0,.27.08.4.12Z" style="fill: #569a75; stroke-width: 0px;"/>
    <path d="M71.52,93.91c.39-.01.79-.03,1.18-.04-.19.23-.38.45-.58.68-.21-.2-.42-.42-.61-.64Z" style="fill: #416f56; stroke-width: 0px;"/>
    <path d="M72.81,115.05c-.32.1-.63.19-.95.29.32-.1.63-.19.95-.29Z" style="fill: #0d8d71; stroke-width: 0px;"/>
    <path d="M103.95,39.89c.01,5.42-7.89,11.63-13.3,11-6.9-.8-13.86-1.03-20.8-1.49-7.26-.48-14.52-.88-21.77-1.47-.96-.08-1.84-1.1-2.76-1.69.69-1,1.17-2.57,2.1-2.9,2.63-.93,5.52-1.1,8.15-2.03,12.55-4.46,25.74-5.72,38.75-7.8,6.11-.98,9.62,1.66,9.63,6.38Z" style="fill: #039375; stroke-width: 0px;"/>
    <path d="M40.07,69.72c-5.66,1.34-11.33,2.67-16.99,4.01-1.04-6.3-2.44-12.58-2.98-18.92-.38-4.4,2.05-6.05,6.35-5.01,4.36,1.05,8.81,2.05,12.85,3.89,1.71.78,3.51,3.7,3.42,5.56-.18,3.53-1.69,6.98-2.65,10.47Z" style="fill: #039375; stroke-width: 0px;"/>
    <path d="M97.04,138.54c-8.95,1.23-17.78.9-26.6-1.61,2.55-4.65,9.9-9.32,13.87-8.01,2.43.8,4.17,3.66,6.01,5.39.64-.87,1.81-4.02,3.49-4.32,2.17-.39,4.75,1.5,7.15,2.41-1.31,2.05-2.61,4.1-3.92,6.14Z" style="fill: #09a486; stroke-width: 0px;"/>
    <path d="M101.14,113.74c1.15-.28,2.3-.56,3.46-.85-.21,2.11-.42,4.23-.62,6.34-1.3,2.38-2.6,4.77-3.9,7.15-.74-.07-1.47-.15-2.21-.22,0-1.57,0-3.13,0-4.98-1.48.08-2.7.15-3.92.22-.74-1.8-1.47-3.6-2.21-5.39-.46.06-.91.12-1.37.18-.38,1.99-.77,3.98-1.15,5.96-.13.12-.26.24-.4.37-1.3-.74-2.6-1.47-5.3-3,.89,3.53,1.38,5.49,1.88,7.45-.97.06-1.94.11-2.91.17-1.26-2.25-2.52-4.49-3.79-6.74,1.76-.73,3.62-1.31,5.25-2.26,1.15-.67,2.01-1.84,3.01-2.79,2.31,0,4.53-4.15,6.94-.17,1-.61,2-1.21,3-1.82,0,0,.02.01.02.01-.28,1.69-.56,3.38-.88,5.34h4.72c.13-1.78.24-3.38.36-4.97Z" style="fill: #cb8891; stroke-width: 0px;"/>
    <path d="M100.07,126.39c1.3-2.38,2.6-4.77,3.9-7.15,4.29.46,4.49,1.91.95,7.07-1.62.03-3.23.05-4.85.08Z" style="fill: #e1bdb9; stroke-width: 0px;"/>
    <path d="M64.16,118.62c3.93-.76,7.85-1.52,11.78-2.27-.31,1.06-.62,2.11-.93,3.17-.07.33-.13.67-.2,1-.3.61-.6,1.22-.89,1.84-1.93.11-3.86.23-5.79.34-.04.45-.07.9-.11,1.36,1.59.12,3.21.08,4.74.44.79.19,1.85,1.02,1.96,1.7.1.59-.82,1.78-1.52,2.01-3.46,1.16-6.94,2.49-10.52,2.92-1.88.22-5.27-.89-5.64-2.12-.57-1.85.4-4.68,1.65-6.44,1.23-1.74,3.61-2.66,5.49-3.95Z" style="fill: #09a486; stroke-width: 0px;"/>
    <path d="M74.8,120.52c.07-.33.13-.66.2-1,.97-.13,1.95-.26,2.92-.39.26.43.53.85.79,1.28,1.26,2.25,2.53,4.49,3.79,6.74-4.69,1.85-5.18-2.78-7.38-4.77-.11-.62-.21-1.24-.32-1.86Z" style="fill: #eddacd; stroke-width: 0px;"/>
    <path d="M85.41,126.98c-.5-1.96-.99-3.92-1.88-7.45,2.69,1.52,3.99,2.26,5.3,3,.35,1.9.7,3.8,1.05,5.7-1.49-.41-2.98-.83-4.47-1.24Z" style="fill: #e7aab5; stroke-width: 0px;"/>
    <path d="M93.95,121.41c1.22-.07,2.44-.14,3.92-.22,0,1.85,0,3.42,0,4.98-1,.47-1.99.93-2.99,1.4-3.42-.12-1.81-2.54-1.91-4.18l-.02.02c.34-.68.68-1.36,1.02-2.04l-.02.03Z" style="fill: #e7aab5; stroke-width: 0px;"/>
    <path d="M92.97,123.39c.1,1.64-1.51,4.06,1.91,4.18-1.67.22-3.34.44-5.01.66-.35-1.9-.7-3.8-1.05-5.7.13-.12.26-.24.39-.36,1.25.41,2.5.82,3.75,1.23Z" style="fill: #cb8891; stroke-width: 0px;"/>
    <path d="M74.8,120.52c.11.62.21,1.24.32,1.86-.4,0-.81-.01-1.21-.02.3-.61.6-1.22.89-1.84Z" style="fill: #0d8d71; stroke-width: 0px;"/>
    <path d="M84.99,113.4c-.33-.38-.67-.76-1-1.14.33.38.66.76,1,1.14Z" style="fill: #cb8891; stroke-width: 0px;"/>
    <path d="M85.99,114.39c-.35-.34-.69-.69-1.04-1.03.35.34.69.69,1.04,1.03Z" style="fill: #cb8891; stroke-width: 0px;"/>
    <path d="M86.99,115.4c-.34-.35-.69-.69-1.03-1.04.34.35.69.69,1.03,1.04Z" style="fill: #cb8891; stroke-width: 0px;"/>
    <path d="M101.14,113.74c-.12,1.59-.23,3.19-.36,4.97h-4.72c.32-1.96.6-3.65.88-5.34,1.01-.41,2.02-.82,3.03-1.23.32.1.64.19.96.28.07.44.14.87.21,1.31Z" style="fill: #e1bdb9; stroke-width: 0px;"/>
    <path d="M100.92,112.44c-.32-.09-.64-.19-.96-.28.33-.22.65-.44.98-.66.05.32.05.63-.02.95Z" style="fill: #416f56; stroke-width: 0px;"/>
    <path d="M92.97,123.39c-1.25-.41-2.5-.82-3.75-1.23.39-1.99.77-3.98,1.16-5.97.46-.06.91-.12,1.37-.18.74,1.8,1.47,3.6,2.21,5.39,0,0,.02-.03.02-.03-.34.68-.68,1.36-1.02,2.04l.02-.02Z" style="fill: #e7aab5; stroke-width: 0px;"/>
    <path d="M92.95,123.41c.34-.68.68-1.36,1.02-2.04-.34.68-.68,1.36-1.02,2.04Z" style="fill: #cb8891; stroke-width: 0px;"/>
  </g>
</svg>