<svg width="31" height="31" viewBox="0 0 31 31" fill="none" xmlns="http://www.w3.org/2000/svg">
  <path
    d="M15.5 18V20.5C13.5109 20.5 11.6032 21.2902 10.1967 22.6967C8.79018 24.1032 8 26.0109 8 28H5.5C5.5 25.3478 6.55357 22.8043 8.42893 20.9289C10.3043 19.0536 12.8478 18 15.5 18ZM15.5 16.75C11.3562 16.75 8 13.3938 8 9.25C8 5.10625 11.3562 1.75 15.5 1.75C19.6438 1.75 23 5.10625 23 9.25C23 13.3938 19.6438 16.75 15.5 16.75ZM15.5 14.25C18.2625 14.25 20.5 12.0125 20.5 9.25C20.5 6.4875 18.2625 4.25 15.5 4.25C12.7375 4.25 10.5 6.4875 10.5 9.25C10.5 12.0125 12.7375 14.25 15.5 14.25ZM26.75 21.75H28V28H18V21.75H19.25V20.5C19.25 19.5054 19.6451 18.5516 20.3483 17.8483C21.0516 17.1451 22.0054 16.75 23 16.75C23.9946 16.75 24.9484 17.1451 25.6517 17.8483C26.3549 18.5516 26.75 19.5054 26.75 20.5V21.75ZM24.25 21.75V20.5C24.25 20.1685 24.1183 19.8505 23.8839 19.6161C23.6495 19.3817 23.3315 19.25 23 19.25C22.6685 19.25 22.3505 19.3817 22.1161 19.6161C21.8817 19.8505 21.75 20.1685 21.75 20.5V21.75H24.25Z"
    fill="white"
  />
</svg>
