<svg width="31" height="31" viewBox="0 0 31 31" fill="none" xmlns="http://www.w3.org/2000/svg">
  <path
    d="M24.875 4.25H22.0625V3.3125C22.0625 3.06386 21.9637 2.8254 21.7879 2.64959C21.6121 2.47377 21.3736 2.375 21.125 2.375C20.8764 2.375 20.6379 2.47377 20.4621 2.64959C20.2863 2.8254 20.1875 3.06386 20.1875 3.3125V4.25H10.8125V3.3125C10.8125 3.06386 10.7137 2.8254 10.5379 2.64959C10.3621 2.47377 10.1236 2.375 9.875 2.375C9.62636 2.375 9.3879 2.47377 9.21209 2.64959C9.03627 2.8254 8.9375 3.06386 8.9375 3.3125V4.25H6.125C5.62772 4.25 5.15081 4.44754 4.79917 4.79917C4.44754 5.15081 4.25 5.62772 4.25 6.125V24.875C4.25 25.3723 4.44754 25.8492 4.79917 26.2008C5.15081 26.5525 5.62772 26.75 6.125 26.75H24.875C25.3723 26.75 25.8492 26.5525 26.2008 26.2008C26.5525 25.8492 26.75 25.3723 26.75 24.875V6.125C26.75 5.62772 26.5525 5.15081 26.2008 4.79917C25.8492 4.44754 25.3723 4.25 24.875 4.25ZM8.9375 6.125V7.0625C8.9375 7.31114 9.03627 7.5496 9.21209 7.72541C9.3879 7.90123 9.62636 8 9.875 8C10.1236 8 10.3621 7.90123 10.5379 7.72541C10.7137 7.5496 10.8125 7.31114 10.8125 7.0625V6.125H20.1875V7.0625C20.1875 7.31114 20.2863 7.5496 20.4621 7.72541C20.6379 7.90123 20.8764 8 21.125 8C21.3736 8 21.6121 7.90123 21.7879 7.72541C21.9637 7.5496 22.0625 7.31114 22.0625 7.0625V6.125H24.875V9.875H6.125V6.125H8.9375ZM24.875 24.875H6.125V11.75H24.875V24.875Z"
    fill="white"
  />
</svg>
