<svg width="31" height="31" viewBox="0 0 31 31" fill="none" xmlns="http://www.w3.org/2000/svg">
  <rect x="0.5" y="0.5" width="30" height="30" rx="5" fill="white" />
  <path
    d="M25.5383 10.1492L18.9758 3.58672C18.8887 3.49969 18.7852 3.43067 18.6714 3.38362C18.5576 3.33657 18.4357 3.3124 18.3125 3.3125H7.0625C6.56522 3.3125 6.08831 3.51004 5.73667 3.86167C5.38504 4.21331 5.1875 4.69022 5.1875 5.1875V25.8125C5.1875 26.3098 5.38504 26.7867 5.73667 27.1383C6.08831 27.49 6.56522 27.6875 7.0625 27.6875H23.9375C24.4348 27.6875 24.9117 27.49 25.2633 27.1383C25.615 26.7867 25.8125 26.3098 25.8125 25.8125V10.8125C25.8126 10.6893 25.7884 10.5674 25.7414 10.4536C25.6943 10.3398 25.6253 10.2363 25.5383 10.1492ZM19.25 6.51289L22.6121 9.875H19.25V6.51289ZM23.9375 25.8125H7.0625V5.1875H17.375V10.8125C17.375 11.0611 17.4738 11.2996 17.6496 11.4754C17.8254 11.6512 18.0639 11.75 18.3125 11.75H23.9375V25.8125ZM19.25 18.3125C19.25 18.5611 19.1512 18.7996 18.9754 18.9754C18.7996 19.1512 18.5611 19.25 18.3125 19.25H16.4375V21.125C16.4375 21.3736 16.3387 21.6121 16.1629 21.7879C15.9871 21.9637 15.7486 22.0625 15.5 22.0625C15.2514 22.0625 15.0129 21.9637 14.8371 21.7879C14.6613 21.6121 14.5625 21.3736 14.5625 21.125V19.25H12.6875C12.4389 19.25 12.2004 19.1512 12.0246 18.9754C11.8488 18.7996 11.75 18.5611 11.75 18.3125C11.75 18.0639 11.8488 17.8254 12.0246 17.6496C12.2004 17.4738 12.4389 17.375 12.6875 17.375H14.5625V15.5C14.5625 15.2514 14.6613 15.0129 14.8371 14.8371C15.0129 14.6613 15.2514 14.5625 15.5 14.5625C15.7486 14.5625 15.9871 14.6613 16.1629 14.8371C16.3387 15.0129 16.4375 15.2514 16.4375 15.5V17.375H18.3125C18.5611 17.375 18.7996 17.4738 18.9754 17.6496C19.1512 17.8254 19.25 18.0639 19.25 18.3125Z"
    fill="black"
  />
</svg>
