<svg width="31" height="31" viewBox="0 0 31 31" fill="none" xmlns="http://www.w3.org/2000/svg">
  <g clip-path="url(#clip0_6224_579)">
    <path
      d="M15.5 3C22.4037 3 28 8.59625 28 15.5C28 22.4037 22.4037 28 15.5 28C8.59625 28 3 22.4037 3 15.5C3 8.59625 8.59625 3 15.5 3ZM15.5 5.5C12.8478 5.5 10.3043 6.55357 8.42893 8.42893C6.55357 10.3043 5.5 12.8478 5.5 15.5C5.5 18.1522 6.55357 20.6957 8.42893 22.5711C10.3043 24.4464 12.8478 25.5 15.5 25.5C18.1522 25.5 20.6957 24.4464 22.5711 22.5711C24.4464 20.6957 25.5 18.1522 25.5 15.5C25.5 12.8478 24.4464 10.3043 22.5711 8.42893C20.6957 6.55357 18.1522 5.5 15.5 5.5ZM15.5 20.5C15.8315 20.5 16.1495 20.6317 16.3839 20.8661C16.6183 21.1005 16.75 21.4185 16.75 21.75C16.75 22.0815 16.6183 22.3995 16.3839 22.6339C16.1495 22.8683 15.8315 23 15.5 23C15.1685 23 14.8505 22.8683 14.6161 22.6339C14.3817 22.3995 14.25 22.0815 14.25 21.75C14.25 21.4185 14.3817 21.1005 14.6161 20.8661C14.8505 20.6317 15.1685 20.5 15.5 20.5ZM15.5 8.625C16.5528 8.62503 17.5728 8.99169 18.3847 9.662C19.1966 10.3323 19.7498 11.2644 19.9491 12.2982C20.1485 13.332 19.9816 14.403 19.4772 15.3271C18.9728 16.2513 18.1623 16.971 17.185 17.3625C17.041 17.4172 16.9108 17.503 16.8038 17.6138C16.7488 17.6763 16.74 17.7563 16.7413 17.8388L16.75 18C16.7496 18.3186 16.6277 18.625 16.4089 18.8567C16.1902 19.0884 15.8913 19.2278 15.5733 19.2465C15.2552 19.2651 14.942 19.1617 14.6977 18.9572C14.4534 18.7527 14.2964 18.4626 14.2587 18.1462L14.25 18V17.6875C14.25 16.2463 15.4125 15.3812 16.255 15.0425C16.5979 14.9056 16.897 14.6778 17.1202 14.3837C17.3435 14.0896 17.4823 13.7403 17.522 13.3732C17.5616 13.0061 17.5006 12.6352 17.3453 12.3002C17.19 11.9652 16.9464 11.6788 16.6407 11.4718C16.3349 11.2649 15.9786 11.1451 15.6099 11.1253C15.2412 11.1056 14.8741 11.1867 14.548 11.3598C14.2219 11.533 13.9491 11.7917 13.759 12.1082C13.5688 12.4247 13.4685 12.787 13.4688 13.1562C13.4688 13.4878 13.3371 13.8057 13.1026 14.0401C12.8682 14.2746 12.5503 14.4062 12.2188 14.4062C11.8872 14.4062 11.5693 14.2746 11.3349 14.0401C11.1004 13.8057 10.9688 13.4878 10.9688 13.1562C10.9688 11.9545 11.4461 10.8019 12.2959 9.95217C13.1457 9.1024 14.2982 8.625 15.5 8.625Z"
      fill="white"
    />
  </g>
  <defs>
    <clipPath id="clip0_6224_579">
      <rect width="30" height="30" fill="white" transform="translate(0.5 0.5)" />
    </clipPath>
  </defs>
</svg>
