<?xml version="1.0" encoding="UTF-8"?>
<svg id="Layer_2" data-name="Layer 2" xmlns="http://www.w3.org/2000/svg" viewBox="0 0 57.2 26.79">
  <g id="Layer_1-2" data-name="Layer 1">
    <path d="M9.6,22.41c-4.79.13-7.31-3.09-8.98-6.78-1.58-3.49,0-7.08,3.09-8.5C9.44,4.5,15.61,2.83,21.6.76c3.98.31,7.96.62,11.94.93-1.15.08-2.31.07-3.44.26-11.05,1.77-17.77,8.83-17.54,18.36-.99.7-1.97,1.4-2.96,2.1Z" style="fill: #135d54; stroke-width: 0px;"/>
    <path d="M9.6,22.41c.99-.7,1.97-1.4,2.96-2.1,4.81-.84,9.11-4.51,15.59-2.83-3.55,2.52-6.22,4.41-9.48,6.72,12.56,2.45,23.44.46,33.92-4.41.13.14.26.28.4.41-9.31,6.65-19.89,7.14-30.72,6.27-2.4-.19-4.76-.86-7.98-1.46,1.78-1.55,2.9-2.54,4.02-3.52.35-.43.71-.85,1.07-1.28-.7.08-1.41.15-2.11.23-2.56.66-5.12,1.32-7.68,1.98Z" style="fill: #1c7c6a; stroke-width: 0px;"/>
    <path d="M33.54,1.69c-3.98-.31-7.96-.62-11.94-.93,10.8-1.86,21.14-.37,30.58,5.19,6.12,3.61,6.51,8.3,1.9,13.36-.17-.2-.35-.39-.54-.58,3.03-5.98,2.54-9.28-3.51-12.14-5.13-2.42-10.97-3.33-16.49-4.91Z" style="fill: #1c7c6a; stroke-width: 0px;"/>
    <path d="M54.08,19.31c-.36.29-.73.59-1.09.89-.13-.14-.26-.27-.39-.41.32-.35.63-.7.95-1.05.19.19.36.38.54.58Z" style="fill: #1c7c6a; stroke-width: 0px;"/>
    <path d="M53.54,18.74c-.32.35-.63.7-.95,1.05-10.48,4.88-21.36,6.86-33.92,4.41,3.26-2.31,5.93-4.2,9.48-6.72-6.48-1.68-10.79,1.99-15.59,2.83-.23-9.53,6.5-16.59,17.54-18.36,1.13-.18,2.29-.17,3.44-.26,5.53,1.58,11.37,2.49,16.49,4.91,6.05,2.86,6.54,6.16,3.51,12.14Z" style="fill: #09a486; stroke-width: 0px;"/>
    <path d="M17.28,20.43c.7-.08,1.41-.15,2.11-.23-.36.43-.72.85-1.07,1.28-.34-.35-.69-.7-1.04-1.05Z" style="fill: #5ec7d2; stroke-width: 0px;"/>
  </g>
</svg>