<?xml version="1.0" encoding="UTF-8"?>
<svg id="Layer_2" data-name="Layer 2" xmlns="http://www.w3.org/2000/svg" viewBox="0 0 80.91 51.45">
  <g id="Layer_1-2" data-name="Layer 1">
    <path d="M79.9,3.7c-1.61,3.31-3.22,6.61-4.82,9.92-.93,1.92-1.83,3.84-2.75,5.76-.63.19-1.48.19-1.86.62-5.84,6.58-11.62,13.22-17.41,19.84l.2,1.72c4.19.41,8.37.82,12.56,1.23-1.53,2.31-2.71,5.04-4.72,6.8-1.47,1.29-4.23,2.15-6.1,1.76-4.69-.99-9.97-1.16-13.06-5.86-5.5-6.8-14.01-4.29-20.93-6.74-2.93-1.04-6.06-1.51-9.09-2.23,0-.91,0-1.83,0-2.74,3.97,0,7.94,0,11.91.01,1.02.23,2.05.47,3.07.7,3.1.13,6.21.34,9.31.39,7.91.11,12.27-5.11,16.59-10.73,2.64-3.44,6.04-6.3,9.1-9.42,6.15-4.76,12.31-9.53,19.01-14.72-.4,1.48-.71,2.59-1.01,3.7Z" style="fill: #faf6ec; stroke-width: 0px;"/>
    <path d="M11.91,33.77c0,.91,0,1.83,0,2.74-3.97-.94-7.94-1.88-11.91-2.82,3.97.03,7.94.05,11.91.08Z" style="fill: #e5eee9; stroke-width: 0px;"/>
    <path d="M26.9,34.48c-1.02-.23-2.05-.47-3.07-.7,1.02.23,2.05.47,3.07.7Z" style="fill: #7dc4e5; stroke-width: 0px;"/>
  </g>
</svg>